HIERARCHY
ROOT joint_Root
{
	OFFSET 0.0 0.0 0.0
	CHANNELS 6 Xposition Yposition Zposition Zrotation Xrotation Yrotation 
	JOINT Hips
	{
		OFFSET -0.726466 93.3139 -2.00062
		CHANNELS 6 Xposition Yposition Zposition Zrotation Xrotation Yrotation 
		JOINT Spine
		{
			OFFSET 15.7357 0.0 0.0
			CHANNELS 6 Xposition Yposition Zposition Zrotation Xrotation Yrotation 
			JOINT Chest
			{
				OFFSET 8.98455 -0.406207 0.0
				CHANNELS 6 Xposition Yposition Zposition Zrotation Xrotation Yrotation 
				JOINT Neck
				{
					OFFSET 16.3773 0.0 0.0
					CHANNELS 6 Xposition Yposition Zposition Zrotation Xrotation Yrotation 
					JOINT Head
					{
						OFFSET 6.45672 0.0 0.0
						CHANNELS 6 Xposition Yposition Zposition Zrotation Xrotation Yrotation 
						End Site
						{
							OFFSET 0.0 0.0 0.0
						}
					}
				}
				JOINT Shoulder_L
				{
					OFFSET 12.9942 -0.242716 4.98039
					CHANNELS 6 Xposition Yposition Zposition Zrotation Xrotation Yrotation 
					JOINT UpperArm_L
					{
						OFFSET 5.34809 0.0 0.0
						CHANNELS 6 Xposition Yposition Zposition Zrotation Xrotation Yrotation 
						JOINT LowerArm_L
						{
							OFFSET 24.3286 1.87007e-05 0.0
							CHANNELS 6 Xposition Yposition Zposition Zrotation Xrotation Yrotation 
							JOINT Hand_L
							{
								OFFSET 22.2916 0.0 0.0
								CHANNELS 6 Xposition Yposition Zposition Zrotation Xrotation Yrotation 
								End Site
								{
									OFFSET 0.0 0.0 0.0
								}
							}
						}
					}
				}
				JOINT Shoulder_R
				{
					OFFSET 12.9945 -0.242716 -4.98039
					CHANNELS 6 Xposition Yposition Zposition Zrotation Xrotation Yrotation 
					JOINT UpperArm_R
					{
						OFFSET -5.34813 0.0 0.0
						CHANNELS 6 Xposition Yposition Zposition Zrotation Xrotation Yrotation 
						JOINT LowerArm_R
						{
							OFFSET -24.3289 0.000322201 0.0
							CHANNELS 6 Xposition Yposition Zposition Zrotation Xrotation Yrotation 
							JOINT Hand_R
							{
								OFFSET -22.2915 -0.000108084 0.0
								CHANNELS 6 Xposition Yposition Zposition Zrotation Xrotation Yrotation 
								End Site
								{
									OFFSET 0.0 0.0 0.0
								}
							}
						}
					}
				}
			}
		}
		JOINT UpperLeg_L
		{
			OFFSET -2.19248 -6.46944 0.0
			CHANNELS 6 Xposition Yposition Zposition Zrotation Xrotation Yrotation 
			JOINT LowerLeg_L
			{
				OFFSET 39.0811 0.0 -1.23785e-05
				CHANNELS 6 Xposition Yposition Zposition Zrotation Xrotation Yrotation 
				JOINT Foot_L
				{
					OFFSET 40.9854 0.0 -1.26872e-05
					CHANNELS 6 Xposition Yposition Zposition Zrotation Xrotation Yrotation 
					JOINT Toes_L
					{
						OFFSET 11.7543 0.0 0.0
						CHANNELS 6 Xposition Yposition Zposition Zrotation Xrotation Yrotation 
						End Site
						{
							OFFSET 0.0 0.0 0.0
						}
					}
				}
			}
		}
		JOINT UpperLeg_R
		{
			OFFSET -2.19251 6.46944 0.0
			CHANNELS 6 Xposition Yposition Zposition Zrotation Xrotation Yrotation 
			JOINT LowerLeg_R
			{
				OFFSET -39.0811 -0.00228153 -0.0401928
				CHANNELS 6 Xposition Yposition Zposition Zrotation Xrotation Yrotation 
				JOINT Foot_R
				{
					OFFSET -40.9854 0.0 0.0
					CHANNELS 6 Xposition Yposition Zposition Zrotation Xrotation Yrotation 
					JOINT Toes_R
					{
						OFFSET -11.7543 0.0 0.0
						CHANNELS 6 Xposition Yposition Zposition Zrotation Xrotation Yrotation 
						End Site
						{
							OFFSET 0.0 0.0 0.0
						}
					}
				}
			}
		}
	}
}
MOTION
Frames:	5
Frame Time:	0.0333333
0.000000 0.000000 0.000000 0.000000 0.000000 -0.000000 -1.428340 92.135400 -0.818618 87.875400 -0.927872 5.251160 15.735700 0.000005 -0.000001 75.809100 86.986600 -74.970600 8.984550 -0.406207 -0.000000 -1.911460 -1.547920 1.650840 16.377300 -0.000001 -0.000001 0.028406 -0.821503 1.252020 6.456720 -0.000001 -0.000000 -1.344400 -0.037743 -0.397431 12.994200 -0.242716 4.980390 -84.198800 -11.844700 -63.665700 5.348090 -0.000007 -0.000001 -63.866800 -58.421300 -93.043600 24.328600 0.000019 0.000005 4.857860 2.134140 -66.338800 22.291600 -0.000001 0.000005 20.732500 5.627380 -13.142500 12.994500 -0.242716 -4.980390 93.077400 -6.792650 -65.555700 -5.348130 -0.000001 -0.000004 -53.210800 -57.428200 -100.928000 -24.328900 0.000322 -0.000009 5.770440 4.300430 -53.429300 -22.291500 -0.000108 -0.000004 23.373600 5.602190 -11.474100 -2.192480 -6.469440 -0.000000 -169.211000 -19.056800 -1.468360 39.081100 -0.000007 -0.000012 -0.135784 0.327128 22.542500 40.985400 -0.000006 -0.000013 -5.667310 -0.116784 -63.572600 11.754300 -0.000000 0.000003 -0.000124 -0.001233 -16.624600 -2.192510 6.469440 -0.000001 174.431000 23.200600 -179.350000 -39.081100 -0.002282 -0.040193 0.026874 -0.061646 20.911100 -40.985400 0.000008 0.000006 -0.233880 3.080120 -63.963400 -11.754300 -0.000006 -0.000006 -0.004462 -0.056165 -18.858000
0.000000 0.000000 0.000000 0.000000 0.000000 -0.000000 -1.422340 92.150700 -0.872048 87.866700 -0.899499 5.180210 15.735700 0.000005 -0.000001 76.153600 86.959600 -75.318700 8.984550 -0.406207 -0.000000 -1.850520 -1.524940 1.644800 16.377300 -0.000001 -0.000001 0.014694 -0.856008 1.253820 6.456720 -0.000001 -0.000000 -1.266980 -0.078540 -0.426624 12.994200 -0.242716 4.980390 -84.226900 -11.823200 -63.736300 5.348090 -0.000007 -0.000001 -63.572100 -58.476200 -92.300500 24.328600 0.000019 0.000005 4.732780 2.029550 -66.840700 22.291600 -0.000001 0.000005 20.632500 5.628000 -13.187900 12.994500 -0.242716 -4.980390 93.056800 -6.748840 -65.561800 -5.348130 -0.000001 -0.000004 -52.926700 -57.620100 -100.359000 -24.328900 0.000322 -0.000009 5.659770 4.144230 -53.906000 -22.291500 -0.000108 -0.000004 23.097300 5.601290 -11.416600 -2.192480 -6.469440 -0.000000 -169.262000 -19.006500 -1.563990 39.081100 -0.000007 -0.000012 -0.133036 0.321498 22.479800 40.985400 -0.000006 -0.000013 -5.654250 -0.168844 -63.507700 11.754300 -0.000000 0.000003 -0.000144 -0.001406 -16.631100 -2.192510 6.469440 -0.000001 174.493000 23.211300 -179.454000 -39.081100 -0.002282 -0.040193 0.026810 -0.061620 20.867200 -40.985400 0.000008 0.000006 -0.247655 3.034580 -63.862900 -11.754300 -0.000006 -0.000006 -0.004502 -0.056566 -18.874400
0.000000 0.000000 0.000000 0.000000 0.000000 -0.000000 -1.420010 92.162100 -0.923066 87.891200 -0.867873 5.162610 15.735700 0.000005 -0.000001 76.217600 86.904500 -75.396000 8.984550 -0.406207 -0.000000 -1.741990 -1.542690 1.619520 16.377300 -0.000001 -0.000001 0.051937 -0.867207 1.259730 6.456720 -0.000001 -0.000000 -1.277790 -0.069778 -0.495290 12.994200 -0.242716 4.980390 -84.259400 -11.811500 -63.843300 5.348090 -0.000007 -0.000001 -63.290200 -58.591300 -91.193800 24.328600 0.000019 0.000005 4.485990 1.828610 -67.868600 22.291600 -0.000001 0.000005 20.239800 5.626700 -13.093200 12.994500 -0.242716 -4.980390 93.024900 -6.685780 -65.586900 -5.348130 -0.000001 -0.000004 -52.854300 -57.687100 -99.741200 -24.328900 0.000322 -0.000009 5.435660 3.864820 -54.695200 -22.291500 -0.000108 -0.000004 22.350000 5.595500 -11.072800 -2.192480 -6.469440 -0.000000 -169.311000 -19.030800 -1.600280 39.081100 -0.000007 -0.000012 -0.132175 0.320447 22.414900 40.985400 -0.000006 -0.000013 -5.626350 -0.139707 -63.431100 11.754300 -0.000000 0.000003 -0.000143 -0.001396 -16.630700 -2.192510 6.469440 -0.000001 174.469000 23.251200 -179.489000 -39.081100 -0.002282 -0.040193 0.026287 -0.060340 20.838700 -40.985400 0.000008 0.000006 -0.252467 3.093350 -63.800300 -11.754300 -0.000006 -0.000006 -0.004403 -0.055566 -18.833600
0.000000 0.000000 0.000000 0.000000 0.000000 -0.000000 -1.420130 92.162800 -0.983770 87.864500 -0.830945 5.126130 15.735700 0.000005 -0.000001 76.514500 86.842800 -75.703700 8.984550 -0.406207 -0.000000 -1.614460 -1.538540 1.599510 16.377300 -0.000001 -0.000001 0.044470 -0.879618 1.288590 6.456720 -0.000001 -0.000000 -1.293480 -0.045936 -0.491643 12.994200 -0.242716 4.980390 -84.286400 -11.837400 -63.999400 5.348090 -0.000007 -0.000001 -63.200100 -58.646800 -89.836900 24.328600 0.000019 0.000005 3.950650 1.479280 -69.506600 22.291600 -0.000001 0.000005 19.653400 5.623480 -12.861100 12.994500 -0.242716 -4.980390 92.982600 -6.578350 -65.543800 -5.348130 -0.000001 -0.000004 -52.782600 -57.620200 -98.642900 -24.328900 0.000322 -0.000009 4.983410 3.344570 -56.223200 -22.291500 -0.000108 -0.000004 21.277600 5.581370 -10.278700 -2.192480 -6.469440 -0.000000 -169.320000 -18.943800 -1.713230 39.081100 -0.000007 -0.000012 -0.132305 0.320117 22.455600 40.985400 -0.000006 -0.000013 -5.627480 -0.184881 -63.415700 11.754300 -0.000000 0.000003 -0.000149 -0.001448 -16.632600 -2.192510 6.469440 -0.000001 174.524000 23.361200 -179.573000 -39.081100 -0.002282 -0.040193 0.027259 -0.062853 20.850300 -40.985400 0.000008 0.000006 -0.170197 3.115590 -63.787400 -11.754300 -0.000006 -0.000006 -0.004417 -0.055711 -18.839500
0.000000 0.000000 0.000000 0.000000 0.000000 -0.000000 -1.417070 92.170800 -1.035640 87.876800 -0.838740 5.100310 15.735700 0.000005 -0.000001 77.140500 86.772500 -76.362200 8.984550 -0.406207 -0.000000 -1.462380 -1.498980 1.537250 16.377300 -0.000001 -0.000001 0.073679 -0.916999 1.316970 6.456720 -0.000001 -0.000000 -1.379560 -0.033291 -0.414339 12.994200 -0.242716 4.980390 -84.297000 -11.900100 -64.159000 5.348090 -0.000007 -0.000001 -62.819000 -58.596800 -87.618500 24.328600 0.000019 0.000005 2.570970 0.839778 -71.941800 22.291600 -0.000001 0.000005 18.925300 5.619520 -12.586800 12.994500 -0.242716 -4.980390 92.913300 -6.418840 -65.524100 -5.348130 -0.000001 -0.000004 -52.349800 -57.493600 -96.618300 -24.328900 0.000322 -0.000009 4.507960 2.743820 -58.745000 -22.291500 -0.000108 -0.000004 19.909200 5.562490 -9.302810 -2.192480 -6.469440 -0.000000 -169.362000 -18.973400 -1.771570 39.081100 -0.000007 -0.000012 -0.131776 0.319282 22.427300 40.985400 -0.000006 -0.000013 -5.607450 -0.202375 -63.360400 11.754300 -0.000000 0.000003 -0.000145 -0.001409 -16.631200 -2.192510 6.469440 -0.000001 174.528000 23.370800 -179.632000 -39.081100 -0.002282 -0.040193 0.026417 -0.060717 20.826900 -40.985400 0.000008 0.000006 -0.203594 3.156260 -63.728600 -11.754300 -0.000006 -0.000006 -0.004279 -0.054311 -18.782500
